<?xml version="1.0" encoding="UTF-8" standalone="no"?>
<!DOCTYPE svg PUBLIC "-//W3C//DTD SVG 1.1//EN" "http://www.w3.org/Graphics/SVG/1.1/DTD/svg11.dtd">
<svg width="100%" height="100%" viewBox="0 0 57 50" version="1.1" xmlns="http://www.w3.org/2000/svg" xmlns:xlink="http://www.w3.org/1999/xlink" xml:space="preserve" xmlns:serif="http://www.serif.com/" style="fill-rule:evenodd;clip-rule:evenodd;stroke-linejoin:round;stroke-miterlimit:2;">
    <g transform="matrix(1,0,0,1,-693.388121,-534.738325)">
        <g transform="matrix(0.768803,0,-0,0.768803,352.26941,-3.441234)">
            <path d="M501.528,727.428L504.759,714.492C504.969,713.527 504.7,712.674 503.973,711.927C503.2,711.133 502.252,710.738 501.13,710.738L467.016,710.738L465.008,719.962L510.44,741.697C510.743,741.842 510.907,742.177 510.835,742.506L508.818,751.771C508.426,753.571 507.574,755.292 506.253,756.932C504.963,758.532 503.389,759.946 501.528,761.17C499.68,762.386 497.709,763.337 495.616,764.024C493.509,764.715 491.404,765.059 489.302,765.059L444.426,765.059C444.207,765.059 443.999,764.96 443.862,764.789C443.724,764.618 443.671,764.394 443.718,764.18L450.131,734.726C450.261,734.713 450.394,734.736 450.515,734.794L460.198,739.426C460.501,739.572 460.665,739.906 460.594,740.235L458.082,751.771C457.933,752.452 457.927,753.005 458.132,753.418C458.185,753.525 458.252,753.622 458.335,753.71C458.768,754.173 459.537,754.344 460.605,754.344L491.32,754.344C492.543,754.344 493.727,754.078 494.872,753.548C495.881,753.081 496.506,752.396 496.709,751.463L497.338,748.571L461.59,731.469C461.567,731.458 461.544,731.445 461.522,731.432L452.112,725.628L455.545,709.859C455.618,709.526 455.913,709.288 456.254,709.288L465.848,709.288L466.257,709.288L468.15,700.593C468.223,700.26 468.518,700.023 468.859,700.023L503.147,700.023C505.271,700.023 507.242,700.39 509.06,701.12C510.884,701.852 512.464,702.855 513.803,704.128C515.167,705.425 516.135,706.997 516.706,708.846C517.274,710.685 517.332,712.67 516.868,714.8L512.629,732.369C512.581,732.586 512.438,732.769 512.239,732.866C512.04,732.963 511.807,732.964 511.607,732.869L501.924,728.236C501.872,728.211 501.824,728.181 501.781,728.146C501.571,727.977 501.469,727.7 501.528,727.428Z"/>
        </g>
    </g>
</svg>
