<?xml version="1.0" encoding="UTF-8" standalone="no"?>
<!DOCTYPE svg PUBLIC "-//W3C//DTD SVG 1.1//EN" "http://www.w3.org/Graphics/SVG/1.1/DTD/svg11.dtd">
<svg width="100%" height="100%" viewBox="0 0 385 51" version="1.1" xmlns="http://www.w3.org/2000/svg" xmlns:xlink="http://www.w3.org/1999/xlink" xml:space="preserve" xmlns:serif="http://www.serif.com/" style="fill-rule:evenodd;clip-rule:evenodd;stroke-linejoin:round;stroke-miterlimit:2;">
    <g transform="matrix(1,0,0,1,-273.601925,-292.522994)">
        <g transform="matrix(1,0,0,1,-54,23)">
            <g transform="matrix(1.651747,0,-0.052822,0.242596,-140.414858,182.430896)">
                <g transform="matrix(1,0,0,1,2.384885,0)">
                    <path d="M336.851,386.102L336.851,358.364C336.851,356.991 336.998,356.012 337.204,356.012L350.604,356.012C352.269,356.012 353.787,357.825 355.156,361.406C356.545,365.037 357.74,369.979 358.742,376.203C359.749,382.46 360.536,389.655 361.102,397.79C361.665,405.896 361.949,414.418 361.949,423.356L361.949,502.416C361.949,511.243 361.672,519.663 361.115,527.669C360.564,535.594 359.798,542.607 358.817,548.703C357.837,554.786 356.669,559.606 355.312,563.154C353.952,566.707 352.447,568.488 350.796,568.488L332.346,568.488C332.213,568.488 332.074,568.079 331.968,567.375C331.862,566.671 331.801,565.748 331.801,564.864L331.801,388.454C331.801,387.081 331.948,386.102 332.154,386.102L336.851,386.102ZM337.749,392.078L337.749,532.422L350.604,532.422C351.354,532.422 352.049,531.594 352.689,529.936C353.335,528.264 353.901,525.991 354.389,523.113C354.874,520.254 355.257,516.936 355.538,513.154C355.813,509.465 355.951,505.463 355.951,501.144L355.951,422.084C355.951,417.891 355.821,414.003 355.555,410.422C355.289,406.851 354.928,403.715 354.47,401.015C354.004,398.265 353.462,396.102 352.845,394.505C352.216,392.875 351.533,392.078 350.796,392.078L337.749,392.078Z" style="fill:rgb(255,112,210);fill-rule:nonzero;"/>
                </g>
                <g transform="matrix(1,0,0,1,1.430931,0)">
                    <path d="M365.154,386.102L369.901,386.102L369.901,358.364C369.901,356.991 370.048,356.012 370.254,356.012L386.804,356.012C387.83,356.012 388.82,357.22 389.775,359.619C390.733,362.027 391.602,365.331 392.383,369.519C393.182,373.807 393.819,379.002 394.291,385.111C394.761,391.185 394.999,397.738 394.999,404.771L394.999,438.401C394.999,439.293 394.936,440.048 394.829,440.449C394.721,440.851 394.58,440.855 394.447,440.461L389.347,425.416C389.144,424.818 389.001,423.438 389.001,422.084L389.001,403.499C389.001,400.583 388.798,398.007 388.402,395.747C387.974,393.297 387.505,392.078 386.996,392.078L370.799,392.078L370.799,421.045L394.653,491.414C394.856,492.012 394.999,493.392 394.999,494.746L394.999,524.836C394.999,530.772 394.769,536.452 394.302,541.858C393.848,547.106 393.238,551.741 392.471,555.754C391.71,559.735 390.862,562.849 389.928,565.095C388.985,567.36 388.008,568.488 386.996,568.488L372.346,568.488C371.352,568.488 370.403,567.326 369.498,565.023C368.581,562.688 367.772,559.44 367.07,555.3C366.359,551.108 365.804,546.27 365.403,540.788C365.003,535.315 364.801,529.574 364.801,523.564L364.801,471.054C364.801,470.162 364.864,469.407 364.971,469.006C365.079,468.604 365.22,468.6 365.353,468.994L370.453,484.039C370.656,484.637 370.799,486.017 370.799,487.371L370.799,524.836C370.799,527.364 370.866,529.301 371.08,530.565C371.318,531.97 371.678,532.422 372.154,532.422L386.804,532.422C387.374,532.422 387.899,531.577 388.379,529.895C388.785,528.474 389.001,526.407 389.001,523.564L389.001,514.665L370.247,459.341C370.231,459.295 370.216,459.244 370.201,459.188L365.101,440.308C364.921,439.643 364.801,438.368 364.801,437.129L364.801,388.454C364.801,387.081 364.948,386.102 365.154,386.102Z" style="fill:rgb(255,112,210);fill-rule:nonzero;"/>
                </g>
                <path d="M404.349,359.636L404.349,566.431C404.349,567.804 404.202,568.783 403.996,568.783L398.846,568.783C398.713,568.783 398.574,568.374 398.468,567.67C398.362,566.966 398.301,566.043 398.301,565.159L398.301,358.364C398.301,356.991 398.448,356.012 398.654,356.012L403.804,356.012C403.937,356.012 404.076,356.421 404.182,357.125C404.288,357.829 404.349,358.752 404.349,359.636Z" style="fill:rgb(255,112,210);fill-rule:nonzero;"/>
                <g transform="matrix(1,0,0,1,-1.907908,0)">
                    <path d="M408.451,519.729L408.451,403.499C408.451,396.646 408.644,390.26 409.031,384.341C409.417,378.444 409.952,373.427 410.636,369.288C411.315,365.18 412.099,361.943 412.986,359.581C413.882,357.199 414.821,356.012 415.804,356.012L434.904,356.012C435.037,356.012 435.176,356.421 435.282,357.125C435.388,357.829 435.449,358.752 435.449,359.636L435.449,389.726C435.449,391.099 435.302,392.078 435.096,392.078L415.996,392.078C415.493,392.078 415.114,393.271 414.862,395.692C414.587,398.335 414.449,401.36 414.449,404.771L414.449,521.001C414.449,524.2 414.57,527.044 414.827,529.524C415.042,531.595 415.374,532.422 415.804,532.422L432.651,532.422L432.651,467.008L420.446,467.008C420.27,467.008 420.089,466.299 419.985,465.205C419.881,464.11 419.873,462.839 419.965,461.971L423.165,431.881C423.229,431.282 423.333,430.942 423.454,430.942L438.104,430.942C438.237,430.942 438.376,431.351 438.482,432.055C438.588,432.759 438.649,433.682 438.649,434.566L438.649,536.046C438.649,537.419 438.502,538.398 438.296,538.398L433.549,538.398L433.549,566.136C433.549,567.509 433.402,568.488 433.196,568.488L415.996,568.488C414.999,568.488 414.048,567.269 413.14,564.856C412.224,562.416 411.415,559.066 410.714,554.823C410.003,550.518 409.445,545.305 409.043,539.171C408.65,533.165 408.451,526.684 408.451,519.729Z" style="fill:rgb(255,112,210);fill-rule:nonzero;"/>
                </g>
                <g transform="matrix(1,0,0,1,-3.338839,0)">
                    <path d="M440.21,564.28L445.91,395.245C445.915,395.121 445.92,395.001 445.927,394.885C446.615,383.308 447.607,373.972 448.898,366.863C450.209,359.643 451.877,356.012 453.904,356.012L465.354,356.012C465.487,356.012 465.626,356.421 465.732,357.125C465.838,357.829 465.899,358.752 465.899,359.636L465.899,386.102L470.454,386.102C470.587,386.102 470.726,386.511 470.832,387.215C470.938,387.919 470.999,388.842 470.999,389.726L470.999,566.136C470.999,567.509 470.852,568.488 470.646,568.488L465.546,568.488C465.413,568.488 465.274,568.079 465.168,567.375C465.062,566.671 465.001,565.748 465.001,564.864L465.001,392.078L454.096,392.078C453.576,392.078 453.164,393.193 452.863,395.453C452.517,398.053 452.185,400.31 451.868,402.224L446.791,566.676C446.757,567.775 446.621,568.488 446.446,568.488L440.746,568.488C440.597,568.488 440.442,567.975 440.334,567.125C440.226,566.275 440.179,565.204 440.21,564.28Z" style="fill:rgb(255,112,210);fill-rule:nonzero;"/>
                </g>
            </g>
            <g transform="matrix(0.995951,0,-0.171429,0.723948,-353.109086,239.948812)">
                <path d="M705.757,87.058C705.774,87.047 705.851,86.999 705.901,86.951C706.031,86.828 706.154,86.67 706.273,86.478C706.392,86.288 706.49,86.07 706.569,85.826C706.636,85.618 706.673,85.413 706.673,85.206L706.673,57.856C706.673,57.476 706.873,57.208 707.157,57.208L710.828,57.208C711.015,57.208 711.212,57.325 711.363,57.527C711.514,57.729 711.602,57.993 711.602,58.244L711.602,85.594C711.602,85.964 711.717,86.299 711.943,86.601C712.169,86.901 712.414,87.058 712.681,87.058L717.285,87.058L717.285,57.856C717.285,57.476 717.486,57.208 717.77,57.208L721.441,57.208C721.628,57.208 721.825,57.325 721.976,57.527C722.127,57.729 722.215,57.993 722.215,58.244L722.215,88.094C722.215,88.474 722.014,88.742 721.731,88.742L718.544,88.742L718.544,93.194C718.544,93.574 718.344,93.842 718.06,93.842L712.971,93.842C712.188,93.842 711.437,93.663 710.721,93.309C710.181,93.043 709.688,92.679 709.243,92.221C708.828,92.689 708.366,93.055 707.859,93.32C707.181,93.675 706.581,93.842 706.066,93.842L704.212,93.842C703.456,93.842 702.727,93.673 702.024,93.338C701.305,92.996 700.67,92.526 700.117,91.936C699.56,91.342 699.087,90.653 698.697,89.868C698.302,89.072 698.032,88.208 697.891,87.276L697.889,87.265L693.746,58.015C693.682,57.564 693.89,57.208 694.218,57.208L697.926,57.208C698.091,57.208 698.266,57.3 698.41,57.464C698.553,57.628 698.654,57.85 698.687,58.078L702.813,85.906C702.978,86.342 703.135,86.671 703.309,86.876C703.449,87.042 703.655,87.058 703.922,87.058L705.757,87.058Z" style="fill:rgb(255,112,210);fill-rule:nonzero;"/>
                <path d="M744.606,73.935C745.609,74.674 746.365,75.699 746.879,77.003C747.395,78.311 747.656,79.674 747.656,81.094L747.656,86.194C747.656,87.223 747.51,88.206 747.217,89.143C746.929,90.062 746.536,90.872 746.038,91.575C745.537,92.282 744.95,92.835 744.277,93.234C743.593,93.641 742.862,93.842 742.083,93.842L730.526,93.842C729.634,93.842 728.81,93.632 728.054,93.223C727.27,92.799 726.592,92.208 726.018,91.457C725.439,90.7 724.994,89.826 724.683,88.836C724.381,87.873 724.227,86.863 724.227,85.806L724.227,81.356C724.227,81.102 724.318,80.89 724.473,80.782L728.143,78.232C728.333,78.1 728.59,78.146 728.805,78.35C729.02,78.554 729.157,78.882 729.157,79.194L729.157,86.194C729.157,86.427 729.195,86.615 729.338,86.732C729.611,86.955 729.911,87.058 730.236,87.058L741.793,87.058C741.963,87.058 742.155,86.914 742.401,86.692C742.619,86.496 742.727,86.199 742.727,85.806L742.727,80.706C742.727,80.602 742.692,80.504 742.631,80.41C742.475,80.167 742.301,79.913 742.11,79.647L739.765,78.034L734.925,81.03C734.734,81.149 734.482,81.095 734.272,80.89C734.063,80.684 733.931,80.363 733.931,80.056L733.931,74.356C733.931,74.107 734.018,73.898 734.167,73.789L741.109,68.689C741.182,68.635 741.267,68.608 741.357,68.608C741.451,68.608 741.514,68.494 741.598,68.357C741.732,68.137 741.782,67.796 741.782,67.356L741.782,65.456C741.782,64.974 741.71,64.545 741.544,64.172C741.464,63.992 741.335,63.942 741.175,63.942L730.526,63.942C730.187,63.942 729.887,64.157 729.602,64.537C729.314,64.92 729.157,65.349 729.157,65.844L729.157,70.294C729.157,70.553 729.063,70.767 728.904,70.873C728.745,70.979 728.539,70.963 728.348,70.831L724.678,68.281C724.411,68.095 724.227,67.719 724.227,67.356L724.227,65.456C724.227,64.401 724.371,63.373 724.662,62.373C724.949,61.384 725.361,60.503 725.896,59.73C726.431,58.959 727.063,58.339 727.794,57.873C728.541,57.396 729.355,57.158 730.236,57.158L740.885,57.158C741.707,57.158 742.472,57.419 743.18,57.925C743.876,58.423 744.495,59.083 745.038,59.906C745.575,60.72 745.996,61.648 746.299,62.689C746.597,63.713 746.747,64.765 746.747,65.844L746.747,67.744C746.747,69.122 746.501,70.448 746,71.718C745.654,72.594 745.19,73.334 744.606,73.935Z" style="fill:rgb(255,112,210);fill-rule:nonzero;"/>
            </g>
            <g transform="matrix(0.72911,0,0,0.826864,355.455085,-137.03835)">
                <path d="M377.397,518.782C377.345,518.782 377.298,518.778 377.256,518.77C377.213,518.763 377.166,518.759 377.115,518.759C377.013,518.759 376.77,518.849 376.386,519.03C376.002,519.21 375.516,519.413 374.928,519.639C374.34,519.864 373.67,520.06 372.92,520.225C372.17,520.391 371.385,520.473 370.567,520.473C369.492,520.473 368.461,520.353 367.472,520.112C366.483,519.872 365.609,519.5 364.85,518.996C364.091,518.492 363.49,517.864 363.046,517.112C362.603,516.361 362.381,515.481 362.381,514.473C362.381,513.481 362.603,512.605 363.046,511.846C363.49,511.086 364.091,510.451 364.85,509.94C365.609,509.429 366.483,509.045 367.472,508.789C368.461,508.534 369.492,508.406 370.567,508.406C371.436,508.406 372.225,508.466 372.933,508.586C373.641,508.707 374.259,508.835 374.787,508.97C375.316,509.105 375.734,509.233 376.041,509.353C376.348,509.474 376.535,509.534 376.604,509.534C376.689,509.534 376.761,509.496 376.821,509.421C376.881,509.346 376.928,509.286 376.962,509.241L377.345,509.511L375.35,512.24L375.094,512.083C375.094,512.037 375.09,511.992 375.082,511.947C375.073,511.902 375.06,511.849 375.043,511.789C375.009,511.624 374.839,511.455 374.532,511.282C374.225,511.109 373.845,510.955 373.393,510.819C372.941,510.684 372.464,510.571 371.961,510.481C371.458,510.391 370.993,510.346 370.567,510.346C369.851,510.346 369.164,510.436 368.508,510.616C367.851,510.797 367.28,511.06 366.794,511.406C366.308,511.752 365.92,512.177 365.63,512.68C365.34,513.184 365.195,513.759 365.195,514.406C365.195,515.052 365.34,515.628 365.63,516.131C365.92,516.635 366.308,517.06 366.794,517.406C367.28,517.752 367.851,518.015 368.508,518.195C369.164,518.376 369.851,518.466 370.567,518.466C371.112,518.466 371.684,518.409 372.281,518.297C372.877,518.184 373.423,518.041 373.918,517.868C374.412,517.695 374.826,517.5 375.158,517.282C375.491,517.064 375.657,516.857 375.657,516.661C375.657,516.556 375.623,516.466 375.555,516.391L375.913,516.21L377.601,518.601L377.397,518.782Z" style="fill:rgb(255,112,210);fill-rule:nonzero;"/>
                <path d="M389.598,513.819C390.212,513.819 390.724,513.778 391.133,513.695C391.542,513.613 391.866,513.496 392.105,513.346C392.344,513.195 392.514,513.019 392.616,512.816C392.719,512.613 392.77,512.391 392.77,512.15C392.77,511.91 392.719,511.688 392.616,511.485C392.514,511.282 392.344,511.105 392.105,510.955C391.866,510.804 391.542,510.688 391.133,510.605C390.724,510.522 390.212,510.481 389.598,510.481L385.173,510.481L385.173,513.819L389.598,513.819ZM390.263,508.541C391.082,508.541 391.823,508.605 392.489,508.733C393.154,508.861 393.725,509.064 394.202,509.342C394.68,509.62 395.046,509.981 395.302,510.425C395.558,510.868 395.686,511.413 395.686,512.06C395.686,513.052 395.353,513.812 394.688,514.338C394.023,514.864 393.128,515.218 392.003,515.398L395.405,519.684C395.524,519.834 395.665,519.924 395.827,519.954C395.989,519.985 396.138,520 396.274,520L396.274,520.406L391.491,520.406L391.491,520C391.644,520 391.777,519.977 391.887,519.932C391.998,519.887 392.054,519.827 392.054,519.751C392.054,519.676 392.02,519.59 391.951,519.492C391.883,519.394 391.781,519.263 391.644,519.097L388.831,515.579L385.173,515.579L385.173,519.594C385.173,519.729 385.228,519.83 385.339,519.898C385.45,519.966 385.65,520 385.94,520L385.94,520.406L381.515,520.406L381.515,520C382.009,520 382.257,519.864 382.257,519.594L382.257,509.353C382.257,509.083 382.009,508.947 381.515,508.947L381.515,508.541L390.263,508.541Z" style="fill:rgb(255,112,210);fill-rule:nonzero;"/>
                <path d="M412.773,510.977C412.773,510.812 412.701,510.688 412.556,510.605C412.411,510.522 412.159,510.481 411.801,510.481L403.513,510.481L403.513,513.278L408.527,513.278C408.868,513.278 409.132,513.237 409.32,513.154C409.508,513.071 409.601,512.857 409.601,512.511L410.062,512.511L410.062,516.03L409.601,516.03C409.601,515.684 409.508,515.462 409.32,515.364C409.132,515.267 408.868,515.218 408.527,515.218L403.513,515.218L403.513,518.33L412.057,518.33C412.313,518.33 412.522,518.278 412.684,518.173C412.846,518.067 412.927,517.924 412.927,517.744L413.387,517.744L413.387,520.834L412.927,520.834C412.927,520.609 412.846,520.481 412.684,520.451C412.522,520.421 412.313,520.406 412.057,520.406L400.137,520.406L400.137,520C400.256,520 400.363,519.966 400.457,519.898C400.55,519.83 400.597,519.729 400.597,519.594L400.597,509.353C400.597,509.218 400.55,509.117 400.457,509.049C400.363,508.981 400.256,508.947 400.137,508.947L400.137,508.541L411.801,508.541C412.159,508.541 412.411,508.492 412.556,508.395C412.701,508.297 412.773,508.165 412.773,508L413.234,508L413.234,510.977L412.773,510.977Z" style="fill:rgb(255,112,210);fill-rule:nonzero;"/>
                <path d="M425.179,515.804L423.031,511.609L420.626,515.804L425.179,515.804ZM415.536,520C415.757,519.969 415.932,519.872 416.06,519.706C416.188,519.541 416.312,519.353 416.431,519.142L421.163,510.368C421.283,510.173 421.389,509.992 421.483,509.827C421.577,509.662 421.624,509.519 421.624,509.398C421.624,509.248 421.564,509.143 421.445,509.083C421.325,509.023 421.197,508.977 421.061,508.947L421.061,508.541L425.384,508.541L425.384,508.947C425.265,508.977 425.145,509.019 425.026,509.071C424.906,509.124 424.847,509.233 424.847,509.398C424.847,509.519 424.877,509.639 424.936,509.759C424.996,509.88 425.086,510.038 425.205,510.233L430.525,519.413C430.611,519.579 430.726,519.699 430.871,519.774C431.016,519.849 431.182,519.924 431.37,520L431.37,520.406L426.868,520.406L426.868,520C426.936,520 427.021,519.977 427.123,519.932C427.226,519.887 427.277,519.819 427.277,519.729C427.277,519.579 427.209,519.383 427.072,519.142L426.1,517.473L419.859,517.473L418.938,519.075C418.767,519.391 418.682,519.616 418.682,519.751C418.682,519.917 418.844,520 419.168,520L419.168,520.406L415.536,520.406L415.536,520Z" style="fill:rgb(255,112,210);fill-rule:nonzero;"/>
                <path d="M441.32,519.594C441.32,519.864 441.508,520 441.883,520L441.883,520.406L437.944,520.406L437.944,520C438.063,520 438.17,519.966 438.263,519.898C438.357,519.83 438.404,519.729 438.404,519.594L438.404,510.616L434.183,510.616C434.03,510.616 433.881,510.654 433.736,510.729C433.591,510.804 433.518,510.947 433.518,511.158L433.058,511.158L433.058,508L433.518,508C433.518,508.211 433.591,508.353 433.736,508.429C433.881,508.504 434.03,508.541 434.183,508.541L445.541,508.541C445.694,508.541 445.843,508.504 445.988,508.429C446.133,508.353 446.206,508.211 446.206,508L446.666,508L446.666,511.158L446.206,511.158C446.206,510.947 446.133,510.804 445.988,510.729C445.843,510.654 445.694,510.616 445.541,510.616L441.32,510.616L441.32,519.594Z" style="fill:rgb(255,112,210);fill-rule:nonzero;"/>
                <path d="M449.812,520C450.256,520 450.478,519.864 450.478,519.594L450.478,509.353C450.478,509.083 450.256,508.947 449.812,508.947L449.812,508.541L454.059,508.541L454.059,508.947C453.615,508.947 453.394,509.083 453.394,509.353L453.394,519.594C453.394,519.864 453.615,520 454.059,520L454.059,520.406L449.812,520.406L449.812,520Z" style="fill:rgb(255,112,210);fill-rule:nonzero;"/>
                <path d="M472.681,508.947C472.34,508.947 472.092,509.056 471.939,509.274C471.785,509.492 471.675,509.669 471.606,509.804L467.079,518.579C466.925,518.879 466.797,519.12 466.695,519.3C466.593,519.481 466.542,519.609 466.542,519.684C466.542,519.759 466.563,519.819 466.606,519.864C466.648,519.909 466.704,519.954 466.772,520L466.772,520.406L462.858,520.406L462.858,520C463.012,519.939 463.088,519.834 463.088,519.684C463.088,519.609 463.024,519.454 462.896,519.221C462.769,518.988 462.611,518.699 462.423,518.353L457.819,509.534C457.734,509.368 457.614,509.248 457.461,509.173C457.307,509.098 457.086,509.023 456.796,508.947L456.796,508.541L461.374,508.541L461.374,508.947C461.255,508.947 461.14,508.974 461.029,509.026C460.918,509.079 460.863,509.18 460.863,509.331C460.863,509.496 460.935,509.707 461.08,509.962C461.225,510.218 461.4,510.534 461.605,510.91L464.879,517.112L468.076,511C468.281,510.609 468.473,510.259 468.652,509.951C468.831,509.643 468.92,509.429 468.92,509.308C468.92,509.068 468.682,508.947 468.204,508.947L468.204,508.541L472.681,508.541L472.681,508.947Z" style="fill:rgb(255,112,210);fill-rule:nonzero;"/>
                <path d="M488.105,510.977C488.105,510.812 488.033,510.688 487.888,510.605C487.743,510.522 487.491,510.481 487.133,510.481L478.845,510.481L478.845,513.278L483.859,513.278C484.2,513.278 484.464,513.237 484.652,513.154C484.84,513.071 484.933,512.857 484.933,512.511L485.394,512.511L485.394,516.03L484.933,516.03C484.933,515.684 484.84,515.462 484.652,515.364C484.464,515.267 484.2,515.218 483.859,515.218L478.845,515.218L478.845,518.33L487.389,518.33C487.645,518.33 487.854,518.278 488.016,518.173C488.178,518.067 488.259,517.924 488.259,517.744L488.719,517.744L488.719,520.834L488.259,520.834C488.259,520.609 488.178,520.481 488.016,520.451C487.854,520.421 487.645,520.406 487.389,520.406L475.469,520.406L475.469,520C475.588,520 475.695,519.966 475.789,519.898C475.882,519.83 475.929,519.729 475.929,519.594L475.929,509.353C475.929,509.218 475.882,509.117 475.789,509.049C475.695,508.981 475.588,508.947 475.469,508.947L475.469,508.541L487.133,508.541C487.491,508.541 487.743,508.492 487.888,508.395C488.033,508.297 488.105,508.165 488.105,508L488.566,508L488.566,510.977L488.105,510.977Z" style="fill:rgb(255,112,210);fill-rule:nonzero;"/>
                <g transform="matrix(1,0,0,1,-4.008259,-15.555556)">
                    <path d="M364.197,547.82L364.453,547.933C364.453,548.068 364.487,548.188 364.556,548.294C364.675,548.474 364.909,548.651 365.259,548.824C365.609,548.997 366.009,549.151 366.461,549.286C366.913,549.422 367.386,549.531 367.881,549.613C368.375,549.696 368.819,549.737 369.211,549.737C369.501,549.737 369.876,549.719 370.337,549.681C370.797,549.643 371.249,549.564 371.692,549.444C372.136,549.324 372.519,549.158 372.843,548.948C373.167,548.737 373.329,548.459 373.329,548.113C373.329,547.767 373.18,547.512 372.882,547.346C372.583,547.181 372.191,547.061 371.705,546.986C371.219,546.91 370.665,546.861 370.042,546.839C369.42,546.816 368.785,546.783 368.137,546.737C367.489,546.692 366.853,546.617 366.231,546.512C365.609,546.407 365.054,546.23 364.568,545.982C364.082,545.734 363.69,545.395 363.392,544.967C363.093,544.538 362.944,543.978 362.944,543.286C362.944,542.82 363.068,542.362 363.315,541.911C363.562,541.459 363.942,541.061 364.453,540.715C364.965,540.369 365.613,540.087 366.397,539.869C367.182,539.651 368.103,539.542 369.16,539.542C370.064,539.542 370.848,539.602 371.513,539.723C372.178,539.843 372.754,539.971 373.24,540.106C373.726,540.241 374.135,540.369 374.468,540.49C374.8,540.61 375.077,540.67 375.299,540.67C375.538,540.67 375.708,540.625 375.811,540.535L376.118,540.715L374.353,543.535L374.097,543.444C374.063,543.234 373.994,543.061 373.892,542.926C373.756,542.745 373.53,542.568 373.214,542.395C372.899,542.223 372.528,542.068 372.102,541.933C371.675,541.798 371.215,541.689 370.72,541.606C370.226,541.523 369.731,541.482 369.237,541.482C368.861,541.482 368.474,541.508 368.073,541.561C367.672,541.614 367.31,541.692 366.986,541.798C366.662,541.903 366.393,542.042 366.18,542.215C365.967,542.388 365.86,542.602 365.86,542.858C365.86,543.219 366.009,543.489 366.308,543.67C366.606,543.85 366.998,543.986 367.484,544.076C367.97,544.166 368.525,544.226 369.147,544.256C369.77,544.286 370.405,544.324 371.053,544.369C371.701,544.414 372.336,544.493 372.958,544.606C373.581,544.719 374.135,544.899 374.621,545.147C375.107,545.395 375.499,545.73 375.798,546.151C376.096,546.572 376.245,547.121 376.245,547.798C376.245,548.579 376.011,549.219 375.542,549.715C375.073,550.211 374.489,550.602 373.79,550.888C373.091,551.173 372.336,551.365 371.526,551.463C370.716,551.561 369.961,551.609 369.262,551.609C368.29,551.609 367.476,551.561 366.819,551.463C366.163,551.365 365.617,551.245 365.182,551.102C364.747,550.959 364.402,550.831 364.146,550.718C363.89,550.606 363.669,550.549 363.481,550.549C363.362,550.549 363.251,550.609 363.149,550.73L362.791,550.549L364.197,547.82Z" style="fill:rgb(255,112,210);fill-rule:nonzero;"/>
                </g>
                <g transform="matrix(1,0,0,1,-4.008259,-15.555556)">
                    <path d="M387.321,550.73C387.321,551 387.509,551.136 387.884,551.136L387.884,551.542L383.945,551.542L383.945,551.136C384.064,551.136 384.171,551.102 384.265,551.034C384.358,550.967 384.405,550.865 384.405,550.73L384.405,541.753L380.185,541.753C380.031,541.753 379.882,541.79 379.737,541.865C379.592,541.941 379.52,542.083 379.52,542.294L379.059,542.294L379.059,539.136L379.52,539.136C379.52,539.347 379.592,539.49 379.737,539.565C379.882,539.64 380.031,539.678 380.185,539.678L391.542,539.678C391.696,539.678 391.845,539.64 391.99,539.565C392.135,539.49 392.207,539.347 392.207,539.136L392.668,539.136L392.668,542.294L392.207,542.294C392.207,542.083 392.135,541.941 391.99,541.865C391.845,541.79 391.696,541.753 391.542,541.753L387.321,541.753L387.321,550.73Z" style="fill:rgb(255,112,210);fill-rule:nonzero;"/>
                </g>
                <g transform="matrix(1,0,0,1,-4.008259,-15.555556)">
                    <path d="M399.574,540.084C399.199,540.084 399.011,540.219 399.011,540.49L399.011,547.256C399.011,548.204 399.357,548.854 400.047,549.207C400.738,549.561 401.748,549.737 403.079,549.737C404.409,549.737 405.419,549.561 406.11,549.207C406.8,548.854 407.146,548.204 407.146,547.256L407.146,540.49C407.146,540.219 406.89,540.084 406.378,540.084L406.378,539.678L410.471,539.678L410.471,540.084C410.062,540.084 409.857,540.219 409.857,540.49L409.857,547.143C409.857,548.031 409.712,548.764 409.422,549.343C409.132,549.922 408.697,550.384 408.118,550.73C407.538,551.076 406.817,551.309 405.956,551.429C405.095,551.549 404.102,551.609 402.976,551.609C401.851,551.609 400.857,551.549 399.996,551.429C399.135,551.309 398.414,551.076 397.835,550.73C397.255,550.384 396.82,549.922 396.53,549.343C396.24,548.764 396.095,548.031 396.095,547.143L396.095,540.49C396.095,540.219 395.857,540.084 395.379,540.084L395.379,539.678L399.574,539.678L399.574,540.084Z" style="fill:rgb(255,112,210);fill-rule:nonzero;"/>
                </g>
                <g transform="matrix(1,0,0,1,-4.008259,-15.555556)">
                    <path d="M421.521,549.602C422.323,549.602 423.022,549.542 423.619,549.422C424.216,549.301 424.71,549.087 425.103,548.779C425.495,548.47 425.789,548.061 425.985,547.549C426.181,547.038 426.279,546.392 426.279,545.61C426.279,544.828 426.181,544.181 425.985,543.67C425.789,543.159 425.495,542.749 425.103,542.441C424.71,542.132 424.216,541.918 423.619,541.798C423.022,541.677 422.323,541.617 421.521,541.617L417.557,541.617L417.557,549.602L421.521,549.602ZM422.545,539.678C423.483,539.678 424.356,539.798 425.167,540.038C425.977,540.279 426.68,540.644 427.277,541.132C427.874,541.621 428.343,542.238 428.684,542.982C429.025,543.726 429.195,544.602 429.195,545.61C429.195,546.617 429.025,547.493 428.684,548.237C428.343,548.982 427.874,549.598 427.277,550.087C426.68,550.576 425.977,550.94 425.167,551.181C424.356,551.421 423.483,551.542 422.545,551.542L414.052,551.542L414.052,551.136C414.444,551.136 414.64,551 414.64,550.73L414.64,540.49C414.64,540.219 414.444,540.084 414.052,540.084L414.052,539.678L422.545,539.678Z" style="fill:rgb(255,112,210);fill-rule:nonzero;"/>
                </g>
                <g transform="matrix(1,0,0,1,-4.008259,-15.555556)">
                    <path d="M432.751,551.136C433.194,551.136 433.416,551 433.416,550.73L433.416,540.49C433.416,540.219 433.194,540.084 432.751,540.084L432.751,539.678L436.997,539.678L436.997,540.084C436.554,540.084 436.332,540.219 436.332,540.49L436.332,550.73C436.332,551 436.554,551.136 436.997,551.136L436.997,551.542L432.751,551.542L432.751,551.136Z" style="fill:rgb(255,112,210);fill-rule:nonzero;"/>
                </g>
                <g transform="matrix(1,0,0,1,-4.008259,-15.555556)">
                    <path d="M449.096,541.617C448.448,541.617 447.8,541.708 447.152,541.888C446.504,542.068 445.92,542.328 445.4,542.666C444.88,543.004 444.458,543.422 444.134,543.918C443.81,544.414 443.648,544.978 443.648,545.61C443.648,546.241 443.81,546.805 444.134,547.301C444.458,547.798 444.88,548.215 445.4,548.553C445.92,548.891 446.504,549.151 447.152,549.331C447.8,549.512 448.448,549.602 449.096,549.602C449.744,549.602 450.392,549.512 451.04,549.331C451.688,549.151 452.272,548.891 452.793,548.553C453.313,548.215 453.735,547.798 454.059,547.301C454.383,546.805 454.545,546.241 454.545,545.61C454.545,544.978 454.383,544.414 454.059,543.918C453.735,543.422 453.313,543.004 452.793,542.666C452.272,542.328 451.688,542.068 451.04,541.888C450.392,541.708 449.744,541.617 449.096,541.617ZM449.096,539.542C450.034,539.542 450.989,539.666 451.961,539.914C452.933,540.162 453.82,540.535 454.621,541.031C455.423,541.527 456.08,542.155 456.591,542.914C457.103,543.674 457.358,544.572 457.358,545.61C457.358,546.647 457.103,547.546 456.591,548.305C456.08,549.064 455.423,549.692 454.621,550.188C453.82,550.685 452.933,551.046 451.961,551.271C450.989,551.497 450.034,551.609 449.096,551.609C448.158,551.609 447.203,551.497 446.231,551.271C445.259,551.046 444.373,550.685 443.571,550.188C442.77,549.692 442.113,549.064 441.601,548.305C441.09,547.546 440.834,546.647 440.834,545.61C440.834,544.572 441.09,543.674 441.601,542.914C442.113,542.155 442.77,541.527 443.571,541.031C444.373,540.535 445.259,540.162 446.231,539.914C447.203,539.666 448.158,539.542 449.096,539.542Z" style="fill:rgb(255,112,210);fill-rule:nonzero;"/>
                </g>
            </g>
        </g>
    </g>
</svg>
